<svg xmlns="http://www.w3.org/2000/svg" xmlns:xlink="http://www.w3.org/1999/xlink" xmlns:svgjs="http://svgjs.com/svgjs" version="1.1" x="0" y="0" viewBox="0 0 512.00001 512.00001" style="enable-background:new 0 0 512 512" xml:space="preserve" class=""><g><path xmlns="http://www.w3.org/2000/svg" d="m512 185.867188c0-16.992188-6.617188-32.96875-18.632812-44.984376l-122.25-122.25c-12.015626-12.015624-27.992188-18.632812-44.988282-18.632812-16.992187 0-32.96875 6.617188-44.984375 18.632812l-262.511719 262.511719c-12.015624 12.015625-18.632812 27.992188-18.632812 44.984375 0 16.996094 6.617188 32.972656 18.632812 44.988282l122.25 122.25c12.015626 12.015624 27.992188 18.632812 44.984376 18.632812 16.996093 0 32.972656-6.617188 44.988281-18.632812l262.511719-262.511719c12.015624-12.015625 18.632812-27.992188 18.632812-44.988281zm-255.398438 239.308593-.371093.371094c-6.082031 6.082031-14.171875 9.433594-22.773438 9.433594-8.605469 0-16.695312-3.351563-22.777343-9.433594l-124.226563-124.226563c-12.558594-12.558593-12.558594-32.992187 0-45.554687l93.96875-93.96875 169.78125 169.777344zm-70.734374 56.8125c-8.976563 0-17.414063-3.496093-23.765626-9.84375l-122.246093-122.25c-13.105469-13.101562-13.105469-34.425781 0-47.527343l8.96875-8.96875c2.609375 10.6875 8.078125 20.8125 16.40625 29.140624l124.226562 124.226563c8.160157 8.160156 18.1875 13.765625 29.117188 16.4375l-8.941407 8.941406c-6.347656 6.347657-14.785156 9.84375-23.765624 9.84375zm286.277343-272.355469-100.722656 100.722657-169.777344-169.78125 100.722657-100.71875c6.550781-6.550781 15.15625-9.828125 23.765624-9.828125 8.605469 0 17.210938 3.277344 23.761719 9.828125l122.25 122.246093c6.347657 6.347657 9.84375 14.789063 9.84375 23.765626 0 8.980468-3.496093 17.417968-9.84375 23.765624zm0 0" fill="#21374d" data-original="#000000" style="" class=""/></g></svg>
