
<svg xmlns="http://www.w3.org/2000/svg" xmlns:xlink="http://www.w3.org/1999/xlink" xmlns:svgjs="http://svgjs.com/svgjs" version="1.1" x="0" y="0" viewBox="0 0 512.002 512.002" style="enable-background:new 0 0 512 512" xml:space="preserve" class=""><g>
<g xmlns="http://www.w3.org/2000/svg">
	<g>
		<path d="M507.607,174.109L337.89,4.394c-5.857-5.858-15.356-5.858-21.214,0c-10.451,10.451-153.564,153.565-159.108,159.108    c-23.449,23.449-23.452,61.404,0,84.858c5.848,5.848,5.848,15.366,0,21.214L17.546,409.597c-23.395,23.395-23.395,61.461,0,84.858    c23.393,23.394,61.461,23.396,84.858,0l140.023-140.023c5.849-5.849,15.366-5.849,21.215,0c23.447,23.448,61.405,23.451,84.857,0    c5.331-5.331,148.846-148.846,159.109-159.109c2.813-2.813,4.394-6.628,4.394-10.607S510.421,176.922,507.607,174.109z     M81.189,473.241c-11.726,11.725-30.703,11.726-42.429,0c-11.725-11.726-11.726-30.703,0-42.429l42.429-42.429l42.429,42.429    L81.189,473.241z M327.283,333.218c-11.725,11.725-30.703,11.726-42.428,0c-17.546-17.546-46.098-17.546-63.644,0l-76.379,76.379    l-42.429-42.429l76.38-76.379c17.546-17.546,17.546-46.096,0-63.643c-11.725-11.725-11.726-30.703,0-42.428    C183.477,189.41,322.88,328.814,327.283,333.218L327.283,333.218z M348.499,312.003l-148.501-148.5l84.858-84.859l65.446,65.446    c-7.839,16.378-5.31,37.12,8.805,51.234c3.67,3.67,7.862,6.628,12.41,8.804l-12.41,12.41c-8.5,8.499-13.182,19.801-13.182,31.822    s4.681,23.322,13.182,31.822c3.718,3.718,7.934,6.64,12.432,8.782L348.499,312.003z M401.534,258.966    c-5.85,5.85-15.365,5.848-21.215,0c-2.833-2.833-4.394-6.6-4.394-10.607s1.561-7.773,4.394-10.607l42.429-42.429    c5.858-5.858,5.859-15.356,0-21.214c-4.922-4.923-12.726-5.919-18.861-1.922c-2.862,1.89-5.59,6.316-12.961,6.316    c-4.007,0-7.774-1.56-10.608-4.394c-5.863-5.863-5.863-15.351,0-21.214c5.854-5.853,5.858-15.357,0-21.214l-74.25-74.251    l21.214-21.214l148.501,148.5C461.02,199.481,415.873,244.627,401.534,258.966z" fill="#21374d" data-original="#000000" style="" class=""/>
	</g>
</g>
<g xmlns="http://www.w3.org/2000/svg">
</g>
<g xmlns="http://www.w3.org/2000/svg">
</g>
<g xmlns="http://www.w3.org/2000/svg">
</g>
<g xmlns="http://www.w3.org/2000/svg">
</g>
<g xmlns="http://www.w3.org/2000/svg">
</g>
<g xmlns="http://www.w3.org/2000/svg">
</g>
<g xmlns="http://www.w3.org/2000/svg">
</g>
<g xmlns="http://www.w3.org/2000/svg">
</g>
<g xmlns="http://www.w3.org/2000/svg">
</g>
<g xmlns="http://www.w3.org/2000/svg">
</g>
<g xmlns="http://www.w3.org/2000/svg">
</g>
<g xmlns="http://www.w3.org/2000/svg">
</g>
<g xmlns="http://www.w3.org/2000/svg">
</g>
<g xmlns="http://www.w3.org/2000/svg">
</g>
<g xmlns="http://www.w3.org/2000/svg">
</g>
</g></svg>
