<?xml version="1.0" encoding="iso-8859-1"?>
<!-- Generator: Adobe Illustrator 19.0.0, SVG Export Plug-In . SVG Version: 6.00 Build 0)  -->
<svg version="1.1" id="Layer_1" xmlns="http://www.w3.org/2000/svg" xmlns:xlink="http://www.w3.org/1999/xlink" x="0px" y="0px"
	 viewBox="0 0 512 512" style="enable-background:new 0 0 512 512;" xml:space="preserve">
<g>
	<path style="fill:#B2C4D0;" d="M72,64h368c8.84,0,16,7.16,16,16v32c0,8.84-7.16,16-16,16H72c-8.84,0-16-7.16-16-16V80
		C56,71.16,63.16,64,72,64z"/>
	<path style="fill:#B2C4D0;" d="M80,128v352c0,17.672,14.328,32,32,32h288c17.672,0,32-14.328,32-32V128H80z"/>
</g>
<g>
	<path style="fill:#8FAEBF;" d="M152,448c-8.84,0-16-7.16-16-16V224c0-8.84,7.16-16,16-16s16,7.16,16,16v208
		C168,440.84,160.84,448,152,448z"/>
	<path style="fill:#8FAEBF;" d="M224,448c-8.84,0-16-7.16-16-16V224c0-8.84,7.16-16,16-16s16,7.16,16,16v208
		C240,440.84,232.84,448,224,448z"/>
	<path style="fill:#8FAEBF;" d="M288,448c-8.84,0-16-7.16-16-16V224c0-8.84,7.16-16,16-16s16,7.16,16,16v208
		C304,440.84,296.84,448,288,448z"/>
	<path style="fill:#8FAEBF;" d="M360,448c-8.84,0-16-7.16-16-16V224c0-8.84,7.16-16,16-16s16,7.16,16,16v208
		C376,440.84,368.84,448,360,448z"/>
	<path style="fill:#8FAEBF;" d="M320,0H192c-4.416,0-8,3.584-8,8v56h24V24h96v40h24V8C328,3.584,324.416,0,320,0z"/>
</g>
<g>
	<path style="fill:#7B9CB1;" d="M168,224c0-8.84-7.16-16-16-16s-16,7.16-16,16v208c0,8.84,7.16,16,16,16V240
		C152,231.16,159.16,224,168,224z"/>
	<path style="fill:#7B9CB1;" d="M240,224c0-8.84-7.16-16-16-16s-16,7.16-16,16v208c0,8.84,7.16,16,16,16V240
		C224,231.16,231.16,224,240,224z"/>
	<path style="fill:#7B9CB1;" d="M304,224c0-8.84-7.16-16-16-16s-16,7.16-16,16v208c0,8.84,7.16,16,16,16V240
		C288,231.16,295.16,224,304,224z"/>
	<path style="fill:#7B9CB1;" d="M376,224c0-8.84-7.16-16-16-16s-16,7.16-16,16v208c0,8.84,7.16,16,16,16V240
		C360,231.16,367.16,224,376,224z"/>
</g>
<path style="fill:#8FAEBF;" d="M80,128L80,128c0,8.84,7.16,16,16,16h304c8.84,0,16,7.16,16,16v320c0,8.84-7.16,16-16,16H128
	c-8.84,0-16,7.16-16,16h288c17.672,0,32-14.328,32-32V128H80z"/>
<path style="fill:#C9D5DD;" d="M72,64h368l0,0l0,0c0,8.84-7.16,16-16,16H88C79.16,80,72,72.84,72,64L72,64L72,64z"/>
<g>
</g>
<g>
</g>
<g>
</g>
<g>
</g>
<g>
</g>
<g>
</g>
<g>
</g>
<g>
</g>
<g>
</g>
<g>
</g>
<g>
</g>
<g>
</g>
<g>
</g>
<g>
</g>
<g>
</g>
</svg>
